<?xml version="1.0" encoding="UTF-8" standalone="no"?>
<!DOCTYPE svg PUBLIC "-//W3C//DTD SVG 1.1//EN" "http://www.w3.org/Graphics/SVG/1.1/DTD/svg11.dtd">
<svg width="100%" height="100%" viewBox="0 0 1920 1024" version="1.1" xmlns="http://www.w3.org/2000/svg" xmlns:xlink="http://www.w3.org/1999/xlink" xml:space="preserve" xmlns:serif="http://www.serif.com/" style="fill-rule:evenodd;clip-rule:evenodd;stroke-linejoin:round;stroke-miterlimit:1.5;">
    <g transform="matrix(1,0,0,1,-19321,0)">
        <g transform="matrix(0.856238,0,0,0.856238,-423.048,2910.24)">
            <g transform="matrix(1.1679,-0,-0,1.1679,23059.1,-3398.87)">
            </g>
        </g>
        <g id="iPad-12.9-" serif:id="iPad 12.9&quot;" transform="matrix(1.40556,0,0,1,-7836.6,0)">
            <rect x="19321.5" y="0" width="1366" height="1024" style="fill:none;"/>
            <g id="Path-2" serif:id="Path 2" transform="matrix(0.0873255,0,0,0.122742,19461.8,115.242)">
                <path d="M3742.28,2996.65L3279,3459.28L3375.09,3459.28L3874.85,2961.68L3554.18,2646L3393.41,2646L3742.28,2996.65Z" style="fill-rule:nonzero;"/>
            </g>
            <g id="Path-3" serif:id="Path 3" transform="matrix(0.0873255,0,0,0.122742,19461.8,115.242)">
                <path d="M3807,3054.78L4209,3460L4366,3460L3920.13,3012.41L4272,2646L4213.5,2646L3807,3054.78Z" style="fill-rule:nonzero;"/>
            </g>
            <g transform="matrix(0.118537,0,0,0.166611,18918.4,442.627)">
                <text x="4747.36px" y="584px" style="font-family:'NesobriteEx-Bold', 'Nesobrite';font-weight:700;font-stretch:expanded;font-size:800px;">T<tspan x="5284.95px 5833.76px " y="584px 584px ">ec</tspan>h</text>
            </g>
            <g transform="matrix(0.604323,0,0,0.682389,19986.1,356.872)">
                <g transform="matrix(163.511,0,0,203.533,304.949,268.257)">
                    <path d="M0.02,-0.72L0.02,-0.639L0.34,-0.639L0.34,0L0.421,0L0.421,-0.639L0.74,-0.639L0.74,-0.72L0.02,-0.72Z" style="fill-rule:nonzero;"/>
                </g>
                <g transform="matrix(163.511,0,0,203.533,397.987,268.257)">
                    <path d="M0.52,-0.481L0.172,-0.481C0.105,-0.481 0.051,-0.427 0.051,-0.36L0.051,-0.121C0.051,-0.054 0.105,0 0.172,0L0.642,0L0.642,-0.082L0.172,-0.082C0.151,-0.082 0.133,-0.1 0.133,-0.121L0.133,-0.201L0.642,-0.201L0.642,-0.36C0.642,-0.427 0.588,-0.481 0.52,-0.481ZM0.133,-0.283L0.133,-0.36C0.133,-0.381 0.151,-0.399 0.172,-0.399L0.52,-0.399C0.542,-0.399 0.559,-0.381 0.559,-0.36L0.559,-0.283L0.133,-0.283Z" style="fill-rule:nonzero;"/>
                </g>
                <g transform="matrix(163.511,0,0,203.533,514.243,268.257)">
                    <path d="M0.172,-0.082C0.151,-0.082 0.133,-0.1 0.133,-0.121L0.133,-0.359C0.133,-0.38 0.151,-0.398 0.172,-0.398L0.64,-0.398L0.64,-0.48L0.172,-0.48C0.105,-0.48 0.051,-0.426 0.051,-0.359L0.051,-0.121C0.051,-0.054 0.105,0 0.172,0L0.642,0L0.642,-0.082L0.172,-0.082Z" style="fill-rule:nonzero;"/>
                </g>
                <g transform="matrix(163.511,0,0,203.533,630.009,268.257)">
                    <path d="M0.524,-0.48L0.136,-0.48L0.136,-0.648L0.054,-0.648L0.054,0L0.136,0L0.136,-0.359C0.136,-0.38 0.154,-0.398 0.176,-0.398L0.524,-0.398C0.545,-0.398 0.563,-0.38 0.563,-0.359L0.563,0L0.645,0L0.645,-0.359C0.645,-0.426 0.59,-0.48 0.524,-0.48Z" style="fill-rule:nonzero;"/>
                </g>
            </g>
            <g transform="matrix(-98.8137,0,0,138.889,20512.6,539.928)">
                <path d="M0.651,-0.72L0.348,-0.36L0.651,0L0.756,0C0.656,-0.117 0.55,-0.243 0.453,-0.36L0.755,-0.72L0.651,-0.72Z" style="fill-rule:nonzero;"/>
            </g>
            <g transform="matrix(-98.8137,0,0,138.889,20524.2,539.928)">
                <path d="M0.453,-0.36L0.15,-0.72L0.046,-0.72L0.348,-0.36L0.046,0L0.15,0L0.453,-0.36Z" style="fill-rule:nonzero;"/>
            </g>
            <g transform="matrix(0.711458,0,0,1,5575.41,-8)">
                <path d="M20281,100L20281,940" style="fill:none;stroke:rgb(64,64,64);stroke-width:1px;"/>
            </g>
            <g transform="matrix(0.711458,0,0,1,5831.78,830.074)">
                <g transform="matrix(15,0,0,15,19424.2,112.426)">
                    <path d="M0.05,-0.15C0.05,-0.112 0.065,-0.077 0.095,-0.046C0.126,-0.015 0.161,0 0.2,0L0.4,0C0.439,0 0.474,-0.015 0.504,-0.046C0.535,-0.077 0.55,-0.111 0.55,-0.15L0.55,-0.55C0.55,-0.589 0.535,-0.623 0.504,-0.654C0.473,-0.685 0.439,-0.7 0.4,-0.7L0.2,-0.7C0.162,-0.7 0.127,-0.684 0.096,-0.653C0.065,-0.622 0.05,-0.588 0.05,-0.55L0.05,-0.15ZM0.15,-0.15L0.15,-0.55C0.15,-0.573 0.177,-0.6 0.2,-0.6L0.4,-0.6C0.423,-0.6 0.45,-0.573 0.45,-0.55L0.45,-0.15C0.45,-0.127 0.423,-0.1 0.4,-0.1L0.2,-0.1C0.177,-0.1 0.15,-0.127 0.15,-0.15Z" style="fill:rgb(191,191,191);fill-rule:nonzero;"/>
                </g>
                <g transform="matrix(15,0,0,15,19433.2,112.426)">
                    <path d="M0.05,0L0.15,0L0.15,-0.3L0.301,-0.3L0.45,-0.15L0.45,0L0.55,0L0.55,-0.171C0.55,-0.176 0.54,-0.202 0.536,-0.206L0.431,-0.311C0.464,-0.324 0.491,-0.341 0.512,-0.363C0.537,-0.39 0.55,-0.419 0.55,-0.45L0.55,-0.55C0.55,-0.589 0.535,-0.623 0.504,-0.654C0.473,-0.685 0.439,-0.7 0.4,-0.7L0.05,-0.7L0.05,0ZM0.15,-0.4L0.15,-0.6L0.4,-0.6C0.423,-0.6 0.45,-0.573 0.45,-0.55L0.45,-0.45C0.45,-0.444 0.442,-0.434 0.427,-0.421C0.409,-0.407 0.392,-0.4 0.375,-0.4L0.15,-0.4Z" style="fill:rgb(191,191,191);fill-rule:nonzero;"/>
                </g>
                <g transform="matrix(15,0,0,15,19442.2,112.426)">
                    <rect x="0.05" y="-0.7" width="0.1" height="0.7" style="fill:rgb(191,191,191);fill-rule:nonzero;"/>
                </g>
                <g transform="matrix(15,0,0,15,19445.2,112.426)">
                    <path d="M0.05,-0.151C0.05,-0.11 0.065,-0.074 0.094,-0.045C0.123,-0.016 0.159,-0.001 0.2,-0.001L0.399,-0.001C0.44,-0.001 0.476,-0.016 0.505,-0.045C0.534,-0.074 0.549,-0.11 0.549,-0.151L0.549,-0.283C0.549,-0.307 0.533,-0.328 0.51,-0.332L0.317,-0.376L0.295,-0.279L0.449,-0.243L0.449,-0.151C0.449,-0.124 0.427,-0.101 0.399,-0.101L0.2,-0.101C0.173,-0.101 0.15,-0.124 0.15,-0.151L0.15,-0.55C0.15,-0.577 0.173,-0.6 0.2,-0.6L0.399,-0.6C0.426,-0.6 0.449,-0.577 0.449,-0.55L0.449,-0.5L0.549,-0.5L0.549,-0.55C0.549,-0.591 0.534,-0.627 0.505,-0.656C0.476,-0.685 0.44,-0.7 0.399,-0.7L0.2,-0.7C0.159,-0.7 0.123,-0.685 0.094,-0.656C0.065,-0.627 0.05,-0.591 0.05,-0.55L0.05,-0.151Z" style="fill:rgb(191,191,191);fill-rule:nonzero;"/>
                </g>
                <g transform="matrix(15,0,0,15,19454.2,112.426)">
                    <rect x="0.05" y="-0.7" width="0.1" height="0.7" style="fill:rgb(191,191,191);fill-rule:nonzero;"/>
                </g>
                <g transform="matrix(15,0,0,15,19457.2,112.426)">
                    <path d="M0.05,0L0.15,0L0.15,-0.512L0.457,0L0.55,0L0.55,-0.7L0.45,-0.7L0.45,-0.188L0.144,-0.7L0.05,-0.7L0.05,0Z" style="fill:rgb(191,191,191);fill-rule:nonzero;"/>
                </g>
                <g transform="matrix(15,0,0,15,19466.2,112.426)">
                    <path d="M0.05,0L0.15,0L0.15,-0.2L0.45,-0.2L0.45,0L0.55,0L0.55,-0.35C0.55,-0.357 0.548,-0.365 0.545,-0.372L0.395,-0.672C0.391,-0.683 0.362,-0.7 0.35,-0.7L0.25,-0.7C0.238,-0.7 0.209,-0.683 0.205,-0.672L0.055,-0.372C0.052,-0.363 0.05,-0.356 0.05,-0.35L0.05,0ZM0.15,-0.3L0.15,-0.338L0.281,-0.6L0.319,-0.6L0.45,-0.338L0.45,-0.3L0.15,-0.3Z" style="fill:rgb(191,191,191);fill-rule:nonzero;"/>
                </g>
                <g transform="matrix(15,0,0,15,19475.2,112.426)">
                    <path d="M0.05,0L0.55,0L0.55,-0.1L0.15,-0.1L0.15,-0.7L0.05,-0.7L0.05,0Z" style="fill:rgb(191,191,191);fill-rule:nonzero;"/>
                </g>
            </g>
            <g transform="matrix(0.711458,0,0,1,6480.56,831.574)">
                <g transform="matrix(15,0,0,15,19424.2,112.426)">
                    <path d="M0.05,0L0.15,0L0.15,-0.512L0.457,0L0.55,0L0.55,-0.7L0.45,-0.7L0.45,-0.188L0.144,-0.7L0.05,-0.7L0.05,0Z" style="fill:rgb(191,191,191);fill-rule:nonzero;"/>
                </g>
                <g transform="matrix(15,0,0,15,19433.2,112.426)">
                    <path d="M0.05,0L0.55,0L0.55,-0.1L0.15,-0.1L0.15,-0.3L0.45,-0.3L0.45,-0.4L0.15,-0.4L0.15,-0.6L0.55,-0.6L0.55,-0.7L0.05,-0.7L0.05,0Z" style="fill:rgb(191,191,191);fill-rule:nonzero;"/>
                </g>
                <g transform="matrix(15,0,0,15,19442.2,112.426)">
                    <path d="M0.05,0L0.142,0L0.35,-0.285L0.558,0L0.65,0L0.65,-0.7L0.55,-0.7L0.55,-0.165L0.4,-0.39L0.4,-0.45L0.3,-0.45L0.3,-0.39L0.15,-0.165L0.15,-0.7L0.05,-0.7L0.05,0Z" style="fill:rgb(191,191,191);fill-rule:nonzero;"/>
                </g>
                <g transform="matrix(15,0,0,15,19459.5,112.426)">
                    <path d="M0.05,-0.201C0.05,-0.035 0.185,0.099 0.35,0.099L0.35,-0.001C0.295,-0.001 0.248,-0.02 0.209,-0.059C0.17,-0.098 0.15,-0.146 0.15,-0.201L0.15,-0.5C0.15,-0.555 0.17,-0.602 0.209,-0.641C0.248,-0.68 0.295,-0.7 0.35,-0.7L0.35,-0.8C0.185,-0.8 0.05,-0.665 0.05,-0.5L0.05,-0.201Z" style="fill:rgb(191,191,191);fill-rule:nonzero;"/>
                </g>
                <g transform="matrix(15,0,0,15,19465.5,112.426)">
                    <path d="M0.05,0L0.4,0C0.439,0 0.474,-0.015 0.504,-0.046C0.535,-0.077 0.55,-0.111 0.55,-0.15L0.55,-0.25C0.55,-0.287 0.536,-0.321 0.509,-0.35C0.536,-0.379 0.55,-0.413 0.55,-0.45L0.55,-0.55C0.55,-0.589 0.535,-0.623 0.504,-0.654C0.473,-0.685 0.439,-0.7 0.4,-0.7L0.05,-0.7L0.05,0ZM0.15,-0.1L0.15,-0.3L0.4,-0.3C0.421,-0.3 0.45,-0.273 0.45,-0.25L0.45,-0.15C0.45,-0.127 0.423,-0.1 0.4,-0.1L0.15,-0.1ZM0.15,-0.4L0.15,-0.6L0.4,-0.6C0.421,-0.6 0.45,-0.573 0.45,-0.55L0.45,-0.45C0.45,-0.427 0.423,-0.4 0.4,-0.4L0.15,-0.4Z" style="fill:rgb(191,191,191);fill-rule:nonzero;"/>
                </g>
                <g transform="matrix(15,0,0,15,19474.5,112.426)">
                    <path d="M0.05,0L0.55,0L0.55,-0.1L0.15,-0.1L0.15,-0.3L0.45,-0.3L0.45,-0.4L0.15,-0.4L0.15,-0.6L0.55,-0.6L0.55,-0.7L0.05,-0.7L0.05,0Z" style="fill:rgb(191,191,191);fill-rule:nonzero;"/>
                </g>
                <g transform="matrix(15,0,0,15,19483.5,112.426)">
                    <path d="M0.05,-0.6L0.25,-0.6L0.25,0L0.35,0L0.35,-0.6L0.55,-0.6L0.55,-0.7L0.05,-0.7L0.05,-0.6Z" style="fill:rgb(191,191,191);fill-rule:nonzero;"/>
                </g>
                <g transform="matrix(15,0,0,15,19490.2,112.426)">
                    <path d="M0.05,0L0.15,0L0.15,-0.2L0.45,-0.2L0.45,0L0.55,0L0.55,-0.35C0.55,-0.357 0.548,-0.365 0.545,-0.372L0.395,-0.672C0.391,-0.683 0.362,-0.7 0.35,-0.7L0.25,-0.7C0.238,-0.7 0.209,-0.683 0.205,-0.672L0.055,-0.372C0.052,-0.363 0.05,-0.356 0.05,-0.35L0.05,0ZM0.15,-0.3L0.15,-0.338L0.281,-0.6L0.319,-0.6L0.45,-0.338L0.45,-0.3L0.15,-0.3Z" style="fill:rgb(191,191,191);fill-rule:nonzero;"/>
                </g>
                <g transform="matrix(15,0,0,15,19499.2,112.426)">
                    <path d="M0.05,-0.001L0.05,0.099C0.215,0.099 0.35,-0.035 0.35,-0.201L0.35,-0.5C0.35,-0.665 0.215,-0.8 0.05,-0.8L0.05,-0.7C0.105,-0.7 0.152,-0.68 0.191,-0.641C0.23,-0.602 0.25,-0.555 0.25,-0.5L0.25,-0.201C0.25,-0.146 0.23,-0.098 0.191,-0.059C0.152,-0.02 0.105,-0.001 0.05,-0.001Z" style="fill:rgb(191,191,191);fill-rule:nonzero;"/>
                </g>
            </g>
        </g>
    </g>
</svg>
